<svg version="1.1" xmlns="http://www.w3.org/2000/svg" xmlns:xlink="http://www.w3.org/1999/xlink" width="359.33333" height="359.33333" viewBox="0,0,359.33333,359.33333"><defs><linearGradient x1="320.00001" y1="20.33332" x2="320.00001" y2="339.66667" gradientUnits="userSpaceOnUse" id="color-1"><stop offset="0" stop-color="#4c4c4c"/><stop offset="1" stop-color="#191919"/></linearGradient></defs><g transform="translate(-140.33333,-0.33334)"><g data-paper-data="{&quot;isPaintingLayer&quot;:true}" fill-rule="nonzero" stroke-linecap="butt" stroke-linejoin="miter" stroke-miterlimit="10" stroke-dasharray="" stroke-dashoffset="0" style="mix-blend-mode: normal"><path d="M160.33334,339.66667v-319.33333h319.33333v319.33333z" fill="url(#color-1)" stroke="#000000" stroke-width="40"/><path d="M244.66157,179.99999c0,-41.60827 33.73016,-75.33843 75.33843,-75.33843c41.60827,0 75.33843,33.73016 75.33843,75.33843c0,41.60827 -33.73016,75.33843 -75.33843,75.33843c-41.60827,0 -75.33843,-33.73016 -75.33843,-75.33843z" fill="#ffffff" stroke="none" stroke-width="0"/><path d="M299.47981,271.75458v-183.50918h41.04039v183.50918z" fill="#ffffff" stroke="none" stroke-width="0"/><path d="M228.28908,159.28554l183.50877,0.38862l-0.08691,41.0403l-183.50877,-0.38862z" fill="#ffffff" stroke="none" stroke-width="0"/><path d="M240.48183,230.16814l130.09035,-129.42999l28.946,29.09369l-130.09035,129.42999z" fill="#ffffff" stroke="none" stroke-width="0"/><path d="M270.00037,100.37576l129.15421,130.36415l-29.15492,28.88432l-129.15421,-130.36415z" fill="#ffffff" stroke="none" stroke-width="0"/><path d="M297.42779,179.99999c0,-12.46629 10.10593,-22.57222 22.57222,-22.57222c12.46629,0 22.57222,10.10593 22.57222,22.57222c0,12.46629 -10.10593,22.57222 -22.57222,22.57222c-12.46629,0 -22.57222,-10.10593 -22.57222,-22.57222z" fill="#323232" stroke="none" stroke-width="0"/></g></g></svg>